<svg xmlns="http://www.w3.org/2000/svg" version="1.1" xmlns:xlink="http://www.w3.org/1999/xlink" xmlns:svgjs="http://svgjs.dev/svgjs" width="1440" height="560" preserveAspectRatio="none" viewBox="0 0 1440 560"><g mask="url(&quot;#SvgjsMask1551&quot;)" fill="none"><rect width="1440" height="560" x="0" y="0" fill="url(&quot;#SvgjsLinearGradient1552&quot;)"></rect><path d="M969 209L1336 576" stroke-width="10" stroke="url(&quot;#SvgjsLinearGradient1553&quot;)" stroke-linecap="round" class="TopLeft"></path><path d="M1148 554L768 174" stroke-width="10" stroke="url(&quot;#SvgjsLinearGradient1553&quot;)" stroke-linecap="round" class="TopLeft"></path><path d="M407 21L577 191" stroke-width="8" stroke="url(&quot;#SvgjsLinearGradient1553&quot;)" stroke-linecap="round" class="TopLeft"></path><path d="M854 166L456 -232" stroke-width="6" stroke="url(&quot;#SvgjsLinearGradient1553&quot;)" stroke-linecap="round" class="TopLeft"></path><path d="M621 560L337 276" stroke-width="8" stroke="url(&quot;#SvgjsLinearGradient1553&quot;)" stroke-linecap="round" class="TopLeft"></path><path d="M25 327L246 548" stroke-width="10" stroke="url(&quot;#SvgjsLinearGradient1553&quot;)" stroke-linecap="round" class="TopLeft"></path><path d="M871 548L1257 934" stroke-width="10" stroke="url(&quot;#SvgjsLinearGradient1553&quot;)" stroke-linecap="round" class="TopLeft"></path><path d="M103 149L-238 -192" stroke-width="10" stroke="url(&quot;#SvgjsLinearGradient1553&quot;)" stroke-linecap="round" class="TopLeft"></path><path d="M1163 27L1388 252" stroke-width="8" stroke="url(&quot;#SvgjsLinearGradient1554&quot;)" stroke-linecap="round" class="BottomRight"></path><path d="M1138 177L756 -205" stroke-width="10" stroke="url(&quot;#SvgjsLinearGradient1554&quot;)" stroke-linecap="round" class="BottomRight"></path><path d="M831 342L500 11" stroke-width="8" stroke="url(&quot;#SvgjsLinearGradient1553&quot;)" stroke-linecap="round" class="TopLeft"></path><path d="M909 210L522 -177" stroke-width="6" stroke="url(&quot;#SvgjsLinearGradient1554&quot;)" stroke-linecap="round" class="BottomRight"></path><path d="M951 194L666 -91" stroke-width="6" stroke="url(&quot;#SvgjsLinearGradient1554&quot;)" stroke-linecap="round" class="BottomRight"></path><path d="M953 442L722 211" stroke-width="10" stroke="url(&quot;#SvgjsLinearGradient1554&quot;)" stroke-linecap="round" class="BottomRight"></path><path d="M88 58L-271 -301" stroke-width="8" stroke="url(&quot;#SvgjsLinearGradient1554&quot;)" stroke-linecap="round" class="BottomRight"></path><path d="M59 459L-328 72" stroke-width="6" stroke="url(&quot;#SvgjsLinearGradient1554&quot;)" stroke-linecap="round" class="BottomRight"></path><path d="M640 382L911 653" stroke-width="8" stroke="url(&quot;#SvgjsLinearGradient1553&quot;)" stroke-linecap="round" class="TopLeft"></path><path d="M1022 417L607 2" stroke-width="6" stroke="url(&quot;#SvgjsLinearGradient1554&quot;)" stroke-linecap="round" class="BottomRight"></path><path d="M990 348L804 162" stroke-width="10" stroke="url(&quot;#SvgjsLinearGradient1554&quot;)" stroke-linecap="round" class="BottomRight"></path><path d="M74 74L-88 -88" stroke-width="8" stroke="url(&quot;#SvgjsLinearGradient1554&quot;)" stroke-linecap="round" class="BottomRight"></path><path d="M536 5L910 379" stroke-width="10" stroke="url(&quot;#SvgjsLinearGradient1554&quot;)" stroke-linecap="round" class="BottomRight"></path><path d="M1149 199L815 -135" stroke-width="8" stroke="url(&quot;#SvgjsLinearGradient1554&quot;)" stroke-linecap="round" class="BottomRight"></path><path d="M782 525L446 189" stroke-width="8" stroke="url(&quot;#SvgjsLinearGradient1554&quot;)" stroke-linecap="round" class="BottomRight"></path><path d="M344 22L-1 -323" stroke-width="8" stroke="url(&quot;#SvgjsLinearGradient1553&quot;)" stroke-linecap="round" class="TopLeft"></path><path d="M960 550L1251 841" stroke-width="6" stroke="url(&quot;#SvgjsLinearGradient1553&quot;)" stroke-linecap="round" class="TopLeft"></path><path d="M890 347L1099 556" stroke-width="8" stroke="url(&quot;#SvgjsLinearGradient1553&quot;)" stroke-linecap="round" class="TopLeft"></path><path d="M1223 491L1459 727" stroke-width="8" stroke="url(&quot;#SvgjsLinearGradient1554&quot;)" stroke-linecap="round" class="BottomRight"></path><path d="M280 154L503 377" stroke-width="10" stroke="url(&quot;#SvgjsLinearGradient1553&quot;)" stroke-linecap="round" class="TopLeft"></path><path d="M362 187L47 -128" stroke-width="6" stroke="url(&quot;#SvgjsLinearGradient1553&quot;)" stroke-linecap="round" class="TopLeft"></path><path d="M1335 318L1133 116" stroke-width="6" stroke="url(&quot;#SvgjsLinearGradient1553&quot;)" stroke-linecap="round" class="TopLeft"></path><path d="M616 557L384 325" stroke-width="10" stroke="url(&quot;#SvgjsLinearGradient1554&quot;)" stroke-linecap="round" class="BottomRight"></path><path d="M522 288L680 446" stroke-width="10" stroke="url(&quot;#SvgjsLinearGradient1554&quot;)" stroke-linecap="round" class="BottomRight"></path><path d="M1269 340L1424 495" stroke-width="8" stroke="url(&quot;#SvgjsLinearGradient1554&quot;)" stroke-linecap="round" class="BottomRight"></path><path d="M1326 134L1627 435" stroke-width="6" stroke="url(&quot;#SvgjsLinearGradient1554&quot;)" stroke-linecap="round" class="BottomRight"></path><path d="M640 45L898 303" stroke-width="10" stroke="url(&quot;#SvgjsLinearGradient1554&quot;)" stroke-linecap="round" class="BottomRight"></path><path d="M1137 191L1327 381" stroke-width="10" stroke="url(&quot;#SvgjsLinearGradient1554&quot;)" stroke-linecap="round" class="BottomRight"></path><path d="M1020 232L1251 463" stroke-width="8" stroke="url(&quot;#SvgjsLinearGradient1553&quot;)" stroke-linecap="round" class="TopLeft"></path><path d="M1340 38L1665 363" stroke-width="8" stroke="url(&quot;#SvgjsLinearGradient1553&quot;)" stroke-linecap="round" class="TopLeft"></path><path d="M443 262L173 -8" stroke-width="8" stroke="url(&quot;#SvgjsLinearGradient1553&quot;)" stroke-linecap="round" class="TopLeft"></path></g><defs><mask id="SvgjsMask1551"><rect width="1440" height="560" fill="#ffffff"></rect></mask><linearGradient x1="15.28%" y1="-39.29%" x2="84.72%" y2="139.29%" gradientUnits="userSpaceOnUse" id="SvgjsLinearGradient1552"><stop stop-color="#0e2a47" offset="0"></stop><stop stop-color="rgba(37, 68, 216, 1)" offset="1"></stop></linearGradient><linearGradient x1="100%" y1="100%" x2="0%" y2="0%" id="SvgjsLinearGradient1553"><stop stop-color="rgba(28, 83, 142, 0)" offset="0"></stop><stop stop-color="#1c538e" offset="1"></stop></linearGradient><linearGradient x1="0%" y1="0%" x2="100%" y2="100%" id="SvgjsLinearGradient1554"><stop stop-color="rgba(28, 83, 142, 0)" offset="0"></stop><stop stop-color="#1c538e" offset="1"></stop></linearGradient></defs></svg>